# xmcd
#
# Track frame offsets:
#	150
#	23859
#	46603
#	62324
#	89831
#	110156
#	129571
#	148026
#	170114
#	203995
#	226485
#	243904
#	258023
#	281320
#
# Disc length: 4293 seconds
# Revision: 0
# Processed by: cddbd v1.5.2PL0 Copyright (c) Steve Scherf et al.
# Submitted via: dBpowerAMP V12.0
#
DISCID=c410c30e
DTITLE=Mick Simpson - Unfinished Business
DYEAR=2014
DGENRE=Blues
TTITLE0=Trouble Brewing
TTITLE1=Stepping Out
TTITLE2=Unfinished Business
TTITLE3=Playing The Losing Hand
TTITLE4=The Light In Me
TTITLE5=Shelter From The Storm
TTITLE6=50 Miles From Memphis
TTITLE7=You Gotta Change
TTITLE8=For The Love Of You
TTITLE9=Left Me With The Blues
TTITLE10=Chicago Blues
TTITLE11=Traveling Man
TTITLE12=Lonely Avenue
TTITLE13=Drowning In My Tears
EXTD=
EXTT0=
EXTT1=
EXTT2=
EXTT3=
EXTT4=
EXTT5=
EXTT6=
EXTT7=
EXTT8=
EXTT9=
EXTT10=
EXTT11=
EXTT12=
EXTT13=
PLAYORDER=
